<svg width="23" height="23" viewBox="0 0 23 23" fill="none" xmlns="http://www.w3.org/2000/svg">
<path d="M10.2469 22.4589C15.9061 22.4589 20.4938 17.9881 20.4938 12.4732C20.4938 6.95822 15.9061 2.48746 10.2469 2.48746C4.5877 2.48746 0 6.95822 0 12.4732C0 17.9881 4.5877 22.4589 10.2469 22.4589Z" fill="white"/>
<path d="M10.2469 21.9596C15.6231 21.9596 19.9815 17.7124 19.9815 12.4732C19.9815 7.23396 15.6231 2.98675 10.2469 2.98675C4.87064 2.98675 0.512329 7.23396 0.512329 12.4732C0.512329 17.7124 4.87064 21.9596 10.2469 21.9596Z" stroke="#00ADAA"/>
<path d="M4.09875 9.77703L9.83703 17.5439L21.8731 1.72156" stroke="#00ADAA" stroke-width="2" stroke-linecap="round"/>
</svg>
